<?xml version="1.0" encoding="UTF-8"?>
<svg id="Layer_1" xmlns="http://www.w3.org/2000/svg" version="1.1" viewBox="0 0 863.1 297.71">
  <!-- Generator: Adobe Illustrator 30.1.0, SVG Export Plug-In . SVG Version: 2.1.1 Build 136)  -->
  <defs>
    <style>
      .st0, .st1 {
        fill: none;
      }

      .st2 {
        fill: #663390;
      }

      .st3 {
        fill: #8356a3;
      }

      .st4 {
        fill: #a78cc2;
      }

      .st5 {
        fill: #673492;
      }

      .st6 {
        fill: #a97fb9;
      }

      .st7 {
        fill: #5b2d84;
      }

      .st1 {
        stroke: #fff;
        stroke-linecap: round;
        stroke-linejoin: round;
        stroke-width: 7px;
      }

      .st8 {
        fill: #412362;
      }

      .st9 {
        fill: #412361;
      }

      .st10 {
        fill: #422462;
      }

      .st11 {
        fill: #d0b3d6;
      }

      .st12 {
        fill: #885ca6;
      }
    </style>
  </defs>
  <g>
    <g>
      <g>
        <path class="st10" d="M407.79,99.14h21.2l-28.11,99.84h-19.91l-12.06-58.39-3.52-19.3-3.52,19.3-12.06,58.39h-19.37l-28.31-99.84h22.15l13.21,57.17,2.84,15.92,2.91-15.58,11.24-57.51h22.01l11.85,57.17,3.05,15.92,3.05-15.31,13.34-57.78Z"/>
        <path class="st10" d="M499.17,134.49c6.23,7.81,9.35,17.05,9.35,27.7s-3.12,20.11-9.35,27.8c-6.23,7.7-15.69,11.55-28.38,11.55s-22.15-3.85-28.38-11.55c-6.23-7.7-9.35-16.97-9.35-27.8s3.12-19.89,9.35-27.7c6.23-7.81,15.69-11.72,28.38-11.72s22.15,3.91,28.38,11.72ZM470.72,139.1c-5.65,0-9.99,2-13.04,6-3.05,4-4.57,9.7-4.57,17.1s1.52,13.12,4.57,17.14c3.05,4.02,7.39,6.03,13.04,6.03s9.98-2.01,13-6.03c3.02-4.02,4.54-9.73,4.54-17.14s-1.51-13.11-4.54-17.1c-3.03-4-7.36-6-13-6Z"/>
        <path class="st10" d="M563.79,145.47c-1.63-3.57-4.81-5.35-9.55-5.35-5.51,0-9.21,1.78-11.11,5.35-1.04,2.03-1.56,5.06-1.56,9.08v44.43h-19.58v-73.69h18.76v10.77c2.39-3.84,4.65-6.57,6.77-8.2,3.75-2.89,8.6-4.33,14.56-4.33,5.64,0,10.2,1.24,13.68,3.73,2.8,2.3,4.92,5.26,6.37,8.87,2.53-4.33,5.67-7.52,9.42-9.55,3.97-2.03,8.4-3.05,13.28-3.05,3.25,0,6.46.63,9.62,1.9,3.16,1.26,6.03,3.48,8.6,6.64,2.08,2.57,3.48,5.74,4.2,9.48.45,2.48.68,6.12.68,10.91l-.14,46.53h-19.78v-47.01c0-2.8-.45-5.1-1.35-6.91-1.72-3.43-4.88-5.15-9.48-5.15-5.33,0-9.01,2.21-11.04,6.64-1.04,2.35-1.56,5.17-1.56,8.47v43.96h-19.44v-43.96c0-4.38-.45-7.56-1.35-9.55Z"/>
        <path class="st10" d="M708.87,177.3c-.5,4.38-2.78,8.83-6.84,13.34-6.32,7.18-15.17,10.77-26.55,10.77-9.39,0-17.68-3.02-24.86-9.08-7.18-6.05-10.77-15.89-10.77-29.53,0-12.78,3.24-22.58,9.72-29.4,6.48-6.82,14.89-10.23,25.23-10.23,6.14,0,11.67,1.15,16.59,3.45,4.92,2.3,8.99,5.94,12.19,10.91,2.89,4.38,4.76,9.46,5.62,15.24.5,3.39.7,8.26.61,14.63h-50.53c.27,7.41,2.6,12.6,6.98,15.58,2.66,1.85,5.87,2.78,9.62,2.78,3.97,0,7.2-1.13,9.69-3.39,1.35-1.22,2.55-2.91,3.59-5.08h19.71ZM689.77,154.68c-.32-5.1-1.86-8.98-4.64-11.62-2.78-2.64-6.22-3.96-10.33-3.96-4.47,0-7.94,1.4-10.4,4.2-2.46,2.8-4.01,6.59-4.64,11.38h30.01Z"/>
        <path class="st10" d="M757.57,139.44c-6.55,0-11.04,2.78-13.48,8.33-1.26,2.94-1.9,6.68-1.9,11.24v39.96h-19.24v-73.69h18.63v10.77c2.48-3.79,4.83-6.52,7.04-8.2,3.97-2.98,9.01-4.47,15.1-4.47,7.63,0,13.87,2,18.73,6,4.85,4,7.28,10.62,7.28,19.88v49.72h-19.78v-44.91c0-3.88-.52-6.86-1.56-8.94-1.9-3.79-5.51-5.69-10.84-5.69Z"/>
      </g>
      <path class="st3" d="M835.33,107.91v27.91h-17.81v-27.91h-27.77v-17.68h27.77v-27.77h17.81v27.77h27.77v17.68h-27.77Z"/>
    </g>
    <g>
      <path class="st10" d="M330.73,220.39h4.05v29.61h-4.05v-29.61Z"/>
      <path class="st10" d="M340.81,228.41h3.45v3.06c1.02-1.26,2.1-2.17,3.25-2.72,1.14-.55,2.41-.83,3.81-.83,3.06,0,5.13,1.07,6.21,3.21.59,1.17.89,2.84.89,5.02v13.85h-3.69v-13.61c0-1.32-.19-2.38-.58-3.18-.65-1.34-1.81-2.02-3.51-2.02-.86,0-1.57.09-2.12.26-.99.3-1.87.89-2.62,1.77-.6.71-1,1.45-1.18,2.21-.18.76-.27,1.84-.27,3.26v11.31h-3.63v-21.59Z"/>
      <path class="st10" d="M376.1,220.39h21.49v3.63h-17.58v8.99h16.25v3.43h-16.25v10.04h17.88v3.53h-21.79v-29.61Z"/>
      <path class="st10" d="M414.34,236.93c.83-.11,1.39-.46,1.67-1.05.16-.32.24-.79.24-1.4,0-1.24-.44-2.14-1.32-2.7-.88-.56-2.14-.84-3.77-.84-1.89,0-3.23.51-4.02,1.54-.44.57-.73,1.41-.86,2.53h-3.39c.07-2.67.93-4.52,2.59-5.57,1.66-1.04,3.58-1.57,5.77-1.57,2.54,0,4.6.48,6.18,1.45,1.57.97,2.36,2.47,2.36,4.52v12.44c0,.38.08.68.23.91.15.23.48.34.98.34.16,0,.34-.01.54-.03.2-.02.42-.05.65-.09v2.68c-.56.16-.99.26-1.29.3-.3.04-.7.06-1.21.06-1.25,0-2.16-.44-2.72-1.33-.3-.47-.5-1.14-.62-2-.74.97-1.8,1.81-3.18,2.52-1.38.71-2.91,1.07-4.58,1.07-2,0-3.64-.61-4.91-1.82-1.27-1.21-1.91-2.73-1.91-4.56,0-2,.62-3.55,1.87-4.65,1.25-1.1,2.89-1.78,4.92-2.03l5.79-.72ZM406.7,246.74c.77.6,1.67.9,2.72.9,1.28,0,2.51-.3,3.71-.89,2.02-.98,3.02-2.58,3.02-4.81v-2.92c-.44.28-1.01.52-1.71.71-.7.19-1.38.32-2.05.4l-2.19.28c-1.31.17-2.3.45-2.97.82-1.12.63-1.68,1.64-1.68,3.02,0,1.05.38,1.87,1.15,2.47Z"/>
      <path class="st10" d="M425.83,228.41h3.45v3.73c.28-.73.97-1.61,2.08-2.65,1.1-1.04,2.37-1.56,3.81-1.56.07,0,.18,0,.34.02.16.01.44.04.83.08v3.83c-.22-.04-.41-.07-.59-.08-.18-.01-.38-.02-.59-.02-1.83,0-3.23.59-4.21,1.76-.98,1.18-1.47,2.53-1.47,4.06v12.42h-3.63v-21.59Z"/>
      <path class="st10" d="M439.58,220.39h3.63v29.61h-3.63v-29.61Z"/>
      <path class="st10" d="M462.15,228.41h4.01c-.51,1.39-1.65,4.54-3.41,9.48-1.32,3.71-2.42,6.74-3.31,9.08-2.09,5.51-3.57,8.86-4.43,10.07-.86,1.21-2.34,1.81-4.43,1.81-.51,0-.9-.02-1.18-.06s-.61-.11-1.02-.22v-3.31c.63.17,1.09.28,1.37.32s.53.06.75.06c.67,0,1.16-.11,1.48-.33.32-.22.58-.49.8-.81.07-.11.31-.66.72-1.65s.72-1.73.91-2.21l-7.98-22.22h4.11l5.79,17.59,5.83-17.59Z"/>
      <path class="st10" d="M502.19,222.54c2.05,1.98,3.18,4.22,3.41,6.73h-3.91c-.44-1.91-1.3-3.42-2.6-4.54-1.3-1.12-3.12-1.67-5.47-1.67-2.86,0-5.18,1.03-6.94,3.08-1.76,2.05-2.64,5.2-2.64,9.43,0,3.47.8,6.28,2.39,8.44,1.59,2.16,3.96,3.24,7.12,3.24,2.9,0,5.12-1.14,6.63-3.41.8-1.2,1.41-2.77,1.8-4.72h3.91c-.35,3.12-1.49,5.73-3.43,7.84-2.32,2.54-5.46,3.81-9.41,3.81-3.4,0-6.26-1.04-8.57-3.13-3.04-2.76-4.56-7.01-4.56-12.77,0-4.37,1.14-7.95,3.43-10.75,2.47-3.04,5.88-4.56,10.22-4.56,3.71,0,6.58.99,8.63,2.96Z"/>
      <path class="st10" d="M522.15,236.93c.83-.11,1.39-.46,1.67-1.05.16-.32.24-.79.24-1.4,0-1.24-.44-2.14-1.32-2.7-.88-.56-2.14-.84-3.77-.84-1.89,0-3.23.51-4.02,1.54-.44.57-.73,1.41-.86,2.53h-3.39c.07-2.67.93-4.52,2.59-5.57,1.66-1.04,3.58-1.57,5.77-1.57,2.54,0,4.6.48,6.18,1.45,1.57.97,2.36,2.47,2.36,4.52v12.44c0,.38.08.68.23.91.15.23.48.34.98.34.16,0,.34-.01.54-.03.2-.02.42-.05.65-.09v2.68c-.56.16-.99.26-1.29.3-.3.04-.7.06-1.21.06-1.25,0-2.16-.44-2.72-1.33-.3-.47-.5-1.14-.62-2-.74.97-1.8,1.81-3.18,2.52-1.38.71-2.91,1.07-4.58,1.07-2,0-3.64-.61-4.91-1.82-1.27-1.21-1.91-2.73-1.91-4.56,0-2,.62-3.55,1.87-4.65,1.25-1.1,2.89-1.78,4.92-2.03l5.79-.72ZM514.51,246.74c.77.6,1.67.9,2.72.9,1.28,0,2.51-.3,3.71-.89,2.02-.98,3.02-2.58,3.02-4.81v-2.92c-.44.28-1.01.52-1.71.71-.7.19-1.38.32-2.05.4l-2.19.28c-1.31.17-2.3.45-2.97.82-1.12.63-1.68,1.64-1.68,3.02,0,1.05.38,1.87,1.15,2.47Z"/>
      <path class="st10" d="M533.64,228.41h3.45v3.73c.28-.73.97-1.61,2.08-2.65,1.1-1.04,2.37-1.56,3.81-1.56.07,0,.18,0,.34.02.16.01.44.04.83.08v3.83c-.22-.04-.41-.07-.59-.08-.18-.01-.38-.02-.59-.02-1.83,0-3.23.59-4.21,1.76-.98,1.18-1.47,2.53-1.47,4.06v12.42h-3.63v-21.59Z"/>
      <path class="st10" d="M560.62,229c1.43.72,2.52,1.65,3.27,2.79.72,1.09,1.2,2.36,1.44,3.81.21.99.32,2.58.32,4.76h-15.7c.07,2.2.58,3.96,1.54,5.29.96,1.33,2.45,1.99,4.46,1.99,1.88,0,3.38-.63,4.5-1.88.63-.73,1.07-1.57,1.33-2.53h3.57c-.09.79-.41,1.68-.94,2.65-.53.97-1.12,1.77-1.78,2.39-1.09,1.08-2.45,1.8-4.06,2.18-.87.21-1.85.32-2.94.32-2.67,0-4.93-.98-6.79-2.93-1.86-1.96-2.78-4.69-2.78-8.21s.93-6.28,2.8-8.45c1.87-2.16,4.31-3.25,7.33-3.25,1.52,0,3,.36,4.43,1.08ZM561.92,237.48c-.15-1.57-.49-2.83-1.02-3.77-.99-1.75-2.63-2.62-4.94-2.62-1.65,0-3.04.6-4.16,1.8-1.12,1.2-1.71,2.73-1.78,4.59h11.89Z"/>
      <path class="st10" d="M583.58,229c1.43.72,2.52,1.65,3.27,2.79.72,1.09,1.2,2.36,1.44,3.81.21.99.32,2.58.32,4.76h-15.7c.07,2.2.58,3.96,1.54,5.29.96,1.33,2.45,1.99,4.46,1.99,1.88,0,3.38-.63,4.5-1.88.63-.73,1.07-1.57,1.33-2.53h3.57c-.09.79-.41,1.68-.94,2.65-.53.97-1.12,1.77-1.78,2.39-1.09,1.08-2.45,1.8-4.06,2.18-.87.21-1.85.32-2.94.32-2.67,0-4.93-.98-6.79-2.93-1.86-1.96-2.78-4.69-2.78-8.21s.93-6.28,2.8-8.45c1.87-2.16,4.31-3.25,7.33-3.25,1.52,0,3,.36,4.43,1.08ZM584.88,237.48c-.15-1.57-.49-2.83-1.02-3.77-.99-1.75-2.63-2.62-4.94-2.62-1.65,0-3.04.6-4.16,1.8-1.12,1.2-1.71,2.73-1.78,4.59h11.89Z"/>
      <path class="st10" d="M593.31,228.41h3.45v3.73c.28-.73.97-1.61,2.08-2.65,1.1-1.04,2.37-1.56,3.81-1.56.07,0,.18,0,.34.02.16.01.44.04.83.08v3.83c-.22-.04-.41-.07-.59-.08-.18-.01-.38-.02-.59-.02-1.83,0-3.23.59-4.21,1.76-.98,1.18-1.47,2.53-1.47,4.06v12.42h-3.63v-21.59Z"/>
      <path class="st10" d="M619.39,220.39h13.46c2.22,0,4.04.33,5.48.99,2.73,1.26,4.1,3.6,4.1,6.99,0,1.77-.37,3.23-1.1,4.35-.73,1.13-1.76,2.04-3.07,2.72,1.16.47,2.03,1.09,2.61,1.85.58.77.91,2.01.98,3.73l.14,3.97c.04,1.13.13,1.97.28,2.52.24.94.67,1.55,1.29,1.81v.67h-4.92c-.13-.26-.24-.58-.32-.99s-.15-1.18-.2-2.34l-.24-4.94c-.09-1.94-.79-3.23-2.1-3.89-.74-.36-1.91-.54-3.51-.54h-8.87v12.7h-4.01v-29.61ZM632.42,233.95c1.83,0,3.28-.38,4.34-1.13,1.07-.75,1.6-2.11,1.6-4.07,0-2.11-.74-3.55-2.23-4.31-.8-.4-1.86-.6-3.2-.6h-9.53v10.12h9.02Z"/>
      <path class="st10" d="M661.57,229c1.43.72,2.52,1.65,3.27,2.79.72,1.09,1.2,2.36,1.44,3.81.21.99.32,2.58.32,4.76h-15.7c.07,2.2.58,3.96,1.54,5.29.96,1.33,2.45,1.99,4.46,1.99,1.88,0,3.38-.63,4.5-1.88.63-.73,1.07-1.57,1.33-2.53h3.57c-.09.79-.41,1.68-.94,2.65-.53.97-1.12,1.77-1.78,2.39-1.09,1.08-2.45,1.8-4.06,2.18-.87.21-1.85.32-2.94.32-2.67,0-4.93-.98-6.79-2.93-1.86-1.96-2.78-4.69-2.78-8.21s.93-6.28,2.8-8.45c1.87-2.16,4.31-3.25,7.33-3.25,1.52,0,3,.36,4.43,1.08ZM662.87,237.48c-.15-1.57-.49-2.83-1.02-3.77-.99-1.75-2.63-2.62-4.94-2.62-1.65,0-3.04.6-4.16,1.8-1.12,1.2-1.71,2.73-1.78,4.59h11.89Z"/>
      <path class="st10" d="M673.35,243.23c.11,1.21.42,2.14.93,2.78.93,1.17,2.55,1.75,4.86,1.75,1.37,0,2.58-.29,3.62-.88,1.04-.58,1.56-1.49,1.56-2.71,0-.93-.42-1.63-1.25-2.12-.53-.3-1.58-.64-3.15-1.03l-2.93-.73c-1.87-.46-3.25-.97-4.14-1.53-1.58-.98-2.38-2.34-2.38-4.07,0-2.04.75-3.7,2.24-4.96,1.49-1.26,3.5-1.89,6.02-1.89,3.3,0,5.67.95,7.13,2.86.91,1.21,1.36,2.51,1.33,3.91h-3.43c-.07-.82-.36-1.56-.89-2.23-.85-.95-2.33-1.42-4.44-1.42-1.4,0-2.47.26-3.19.78-.72.52-1.08,1.21-1.08,2.07,0,.94.47,1.69,1.42,2.25.55.33,1.36.63,2.42.89l2.44.58c2.66.63,4.44,1.24,5.34,1.83,1.41.93,2.12,2.39,2.12,4.37s-.74,3.58-2.21,4.98c-1.48,1.4-3.72,2.1-6.75,2.1-3.25,0-5.55-.73-6.91-2.19-1.35-1.46-2.08-3.26-2.17-5.41h3.49Z"/>
      <path class="st10" d="M705.17,229c1.43.72,2.52,1.65,3.27,2.79.72,1.09,1.2,2.36,1.44,3.81.21.99.32,2.58.32,4.76h-15.7c.07,2.2.58,3.96,1.54,5.29.96,1.33,2.45,1.99,4.46,1.99,1.88,0,3.38-.63,4.5-1.88.63-.73,1.07-1.57,1.33-2.53h3.57c-.09.79-.41,1.68-.94,2.65-.53.97-1.12,1.77-1.78,2.39-1.09,1.08-2.45,1.8-4.06,2.18-.87.21-1.85.32-2.94.32-2.67,0-4.93-.98-6.79-2.93-1.86-1.96-2.78-4.69-2.78-8.21s.93-6.28,2.8-8.45c1.87-2.16,4.31-3.25,7.33-3.25,1.52,0,3,.36,4.43,1.08ZM706.47,237.48c-.15-1.57-.49-2.83-1.02-3.77-.99-1.75-2.63-2.62-4.94-2.62-1.65,0-3.04.6-4.16,1.8-1.12,1.2-1.71,2.73-1.78,4.59h11.89Z"/>
      <path class="st10" d="M726.37,236.93c.83-.11,1.39-.46,1.67-1.05.16-.32.24-.79.24-1.4,0-1.24-.44-2.14-1.32-2.7-.88-.56-2.14-.84-3.77-.84-1.89,0-3.23.51-4.02,1.54-.44.57-.73,1.41-.86,2.53h-3.39c.07-2.67.93-4.52,2.59-5.57,1.66-1.04,3.58-1.57,5.77-1.57,2.54,0,4.6.48,6.18,1.45,1.57.97,2.36,2.47,2.36,4.52v12.44c0,.38.08.68.23.91.15.23.48.34.98.34.16,0,.34-.01.54-.03.2-.02.42-.05.65-.09v2.68c-.56.16-.99.26-1.29.3-.3.04-.7.06-1.21.06-1.25,0-2.16-.44-2.72-1.33-.3-.47-.5-1.14-.62-2-.74.97-1.8,1.81-3.18,2.52-1.38.71-2.91,1.07-4.58,1.07-2,0-3.64-.61-4.91-1.82-1.27-1.21-1.91-2.73-1.91-4.56,0-2,.62-3.55,1.87-4.65,1.25-1.1,2.89-1.78,4.92-2.03l5.79-.72ZM718.73,246.74c.77.6,1.67.9,2.72.9,1.28,0,2.51-.3,3.71-.89,2.02-.98,3.02-2.58,3.02-4.81v-2.92c-.44.28-1.01.52-1.71.71-.7.19-1.38.32-2.05.4l-2.19.28c-1.31.17-2.3.45-2.97.82-1.12.63-1.68,1.64-1.68,3.02,0,1.05.38,1.87,1.15,2.47Z"/>
      <path class="st10" d="M737.86,228.41h3.45v3.73c.28-.73.97-1.61,2.08-2.65,1.1-1.04,2.37-1.56,3.81-1.56.07,0,.18,0,.34.02.16.01.44.04.83.08v3.83c-.22-.04-.41-.07-.59-.08-.18-.01-.38-.02-.59-.02-1.83,0-3.23.59-4.21,1.76-.98,1.18-1.47,2.53-1.47,4.06v12.42h-3.63v-21.59Z"/>
      <path class="st10" d="M765.77,229.56c1.53,1.18,2.44,3.22,2.75,6.11h-3.53c-.22-1.33-.71-2.44-1.47-3.32-.77-.88-2-1.32-3.69-1.32-2.31,0-3.96,1.13-4.96,3.38-.65,1.46-.97,3.27-.97,5.42s.46,3.98,1.37,5.46c.91,1.48,2.35,2.21,4.31,2.21,1.5,0,2.7-.46,3.58-1.38.88-.92,1.49-2.17,1.82-3.76h3.53c-.4,2.86-1.41,4.96-3.02,6.28-1.61,1.32-3.68,1.99-6.19,1.99-2.82,0-5.07-1.03-6.75-3.09-1.68-2.06-2.52-4.64-2.52-7.73,0-3.79.92-6.74,2.76-8.85,1.84-2.11,4.19-3.16,7.04-3.16,2.43,0,4.41.59,5.94,1.77Z"/>
      <path class="st10" d="M772.15,220.29h3.63v11.05c.86-1.09,1.63-1.85,2.32-2.3,1.17-.77,2.63-1.15,4.37-1.15,3.13,0,5.25,1.1,6.37,3.29.6,1.2.91,2.86.91,4.98v13.85h-3.73v-13.61c0-1.59-.2-2.75-.6-3.49-.66-1.18-1.89-1.77-3.71-1.77-1.51,0-2.87.52-4.09,1.55-1.22,1.04-1.83,2.99-1.83,5.87v11.45h-3.63v-29.71Z"/>
    </g>
  </g>
  <g>
    <path class="st3" d="M258.43,46.14v-25.41c0-1.3-.83-2.46-2.07-2.86C217.38,5.18,175.42.03,133.84,0l.06,140.61c2.2,2.02,4.61,2.69,6.87,3.78,9.34-.94,19.25-5.18,28.07-9.06,37.41-16.47,73.18-46.22,88.12-84.8l-.25-3.36c.72-.08,1.3-.42,1.73-1.03Z"/>
    <path class="st12" d="M121.01,142.13c-36.25,12.79-81.98,16.35-119.46,7.84-.86-.2-1.49-.94-1.55-1.82l-.55-8.23-.02-55.28c0-.56.23-1.09.63-1.47,19.16-17.95,42.44-30.32,68.29-34.2,3.63,38.44,22.62,69.6,52.66,93.16Z"/>
    <path class="st3" d="M117.86,191.73c0,1.25.19,2.45.56,3.58-8.94,4.32-16.87,9.19-24.96,14.53-1.73-1.28-3.87-2.03-6.19-2.03-1.62,0-3.15.37-4.52,1.03h0l-19.13-20.1c.66-1.31,1-2.82.94-4.4-.18-4.79-4.25-8.71-9.05-8.73-5.56-.02-9.95,4.93-9,10.65.64,3.85,3.8,6.91,7.67,7.45,2.29.32,4.43-.22,6.17-1.33l18.58,19.61c-1.31,1.74-2.08,3.91-2.08,6.25,0,1.58.35,3.09.99,4.43-9.27,8.39-17.33,17.63-24.62,27.82-.13.18-.25.35-.37.51h0s-.37.44-.37.44h0s-.46.54-.46.54l-.21.24-.02.03-.05.05-1.89-1.86C24.29,227.44,4.89,196.91,1.11,161.71c-.22-2.01,1.58-3.64,3.57-3.27,41.32,7.72,82.28,3.55,121.4-9.96l.05,31.99c-4.79,1.5-8.27,5.97-8.27,11.26Z"/>
    <path class="st10" d="M190.8,228.68l-.06.03-.29-.09c.12.03.24.05.35.05Z"/>
    <path class="st10" d="M191.35,228.66c-.19.03-.36.03-.56.02l.24-.15c.11.04.21.09.32.13Z"/>
    <path class="st10" d="M258.08,157.49c.01-1.04-.99-1.77-1.97-1.45-40.85,13.5-82.56,12.47-121.27-5.44l-.71-.34v30.54c4.3,1.76,7.33,5.99,7.33,10.92,0,1.48-.27,2.89-.78,4.2,13.19,9.15,25.07,20.18,37.19,31.12.39.36.79.72,1.19,1.07.67.6,1.04,1.23,1.72,1.27-.09.05-.18.11-.26.17l.7-.21-.17-.11c1.71-.95,3.68-1.48,5.77-1.48,1.48,0,2.91.27,4.22.77l2.48-1.49c15.97-13.86,34.21-24.47,54.06-31.85,1.48-.55,2.66-.8,3.86-.92.59-.06,2.1-5.71,2.34-6.43,1.49-4.54,2.8-9.15,3.61-13.86.94-5.49.64-10.9.71-16.49Z"/>
    <path class="st7" d="M258.43,48.51c-.53-.77-1.12-1.32-1.73-1.34-6.97,21.47-21.39,39.57-38.58,54.97-21.76,19.5-47.75,33.35-75.82,41.33-.88.25-1.34.37-1.53.92,17.2,8.29,36.09,12.23,55.7,12.99,20.51.79,40.62-3.03,59.96-9.74,1.21-.42,2.01-1.56,2.01-2.84V48.51Z"/>
    <path class="st6" d="M2.79,70.23c-1.3,1.05-3.25.13-3.25-1.55l-.13-45.95c0-2.24,1.62-4.1,3.59-4.71,12.55-3.89,24.74-6.73,37.76-9.22C68.96,3.48,97.09.59,126.13.09l-.11,40.68c0,1.29-1.2,2.22-2.46,1.93-30.38-6.94-61.14-4.18-89.16,8.14-11.61,5.01-21.65,11.35-31.62,19.39Z"/>
    <path class="st12" d="M126.01,135.77c-20.26-15.1-34.73-34.93-43.31-57.53-3.43-10.21-6.08-19.95-6.51-30.62,16.22-1.92,32.42-.57,48.33,3.3.9.22,1.53,1.03,1.53,1.95l-.04,82.9Z"/>
    <path class="st8" d="M136.79,200.27c-.13.09-.29.17-.46.23v-.67c.17.11.32.25.46.44Z"/>
    <path class="st8" d="M176.5,245.31l-.09.23s-.03-.05-.05-.07c.05-.05.09-.1.13-.15Z"/>
    <path class="st8" d="M176.95,232.99l-.32,1.03h0s-.2.64-.2.64c.03-.17.05-.32.03-.47l-.46.46h0c-.72,1.54-1.11,3.25-1.11,5.04,0,2.09.54,4.06,1.48,5.77-11.21,12.9-19.98,28.25-26.26,44.14-4.89,2.29-9.45,5.5-14.64,7.27-.42.5-.96.03-1.36-.31l.02-93.9c1.27-.52,2.42-1.25,3.42-2.15.99.43,1.84,1.26,2.87,2.07,11.72,9.27,22.61,19.09,33.82,28.99.13.11.26.23.38.34.77.68,1.56,1.2,1.78,1.95.17-.3.34-.59.54-.87Z"/>
    <path class="st2" d="M124.11,297.48c-22.53-9.62-49.5-26.02-68.23-41.85v-.03h0s0,.01,0,.01c6.83-10.68,15.33-20.34,25.12-28.88.19.1.38.19.58.28.03.01.05.02.08.03,0,0,.01,0,.02.01,0,0,.02.01.03.01,1.6,1.03,3.51,1.61,5.55,1.61,1.74,0,3.38-.43,4.82-1.19.46.67.91,1.34,1.36,2.01.87,1.31,1.74,2.63,2.6,3.95.46.72.91,1.43,1.36,2.15.84,1.34,1.67,2.68,2.49,4.04.43.72.87,1.46,1.3,2.19.83,1.4,1.63,2.8,2.42,4.21.4.7.79,1.41,1.18,2.12.38.7.76,1.4,1.13,2.1.37.7.74,1.4,1.11,2.11.37.72.74,1.44,1.11,2.16s.73,1.44,1.09,2.17c.36.73.71,1.46,1.06,2.19.35.73.7,1.46,1.03,2.19.28.6.56,1.2.83,1.8.4.87.79,1.74,1.17,2.62.32.74.64,1.48.96,2.23.01.02.02.03.03.05.62,1.46,1.22,2.94,1.81,4.42.3.76.6,1.53.89,2.3.57,1.49,1.12,2.99,1.65,4.49.27.76.53,1.52.79,2.29.18.52.35,1.03.52,1.55.14.42.28.85.42,1.28.17.5.32,1.01.48,1.52.27.85.53,1.72.78,2.58.23.76.44,1.52.66,2.29t0,.01c.22.77.42,1.54.63,2.31.16.58.3,1.15.45,1.73.12.47.24.93.36,1.4.13.51.25,1.03.37,1.54Z"/>
    <path class="st11" d="M81.67,227.04s-.05-.02-.08-.03c-.19-.09-.38-.18-.58-.28-9.79,8.54-18.29,18.2-25.12,28.88,0,0,0,0,0,0h0s0,.03,0,.03l-4.15-3.32.05-.05.02-.03.21-.24.46-.54h0c.13-.13.25-.28.37-.44h0c.13-.17.25-.34.37-.52,7.29-10.19,15.35-19.43,24.62-27.82.84,1.79,2.18,3.31,3.84,4.36Z"/>
    <path class="st11" d="M103.61,246.04c-.79-1.41-1.6-2.82-2.42-4.21.83,1.4,1.63,2.8,2.42,4.21Z"/>
    <path class="st11" d="M124.26,297.55s-.1-.04-.15-.06h0c.05.01.1.04.15.06Z"/>
    <path class="st11" d="M136.79,200.27c-.13.09-.29.17-.46.23v-.67c.17.11.32.25.46.44Z"/>
    <path class="st11" d="M138.75,199.82c-.32.24-.66.42-.99.5-.19.06-.38.08-.56.06,0,0,0,0-.01,0-.13-.05-.26-.07-.39-.1l1.29-.97c.13.1.25.19.38.29.89-1,1.62-2.15,2.13-3.41.32,1.09-.66,2.77-1.84,3.64Z"/>
    <path class="st9" d="M181.83,250.04c-.27-.03-.63-.08-.99-.03-.42-.24-.83-.51-1.21-.79l2.21.83Z"/>
    <path class="st9" d="M248.28,201.3c.02.33-.07.8-.25,1.44-.01.05-.03.11-.05.16-.26.66-.54,1.32-.83,1.99v.04c-14.55,33.55-56.17,65.55-88.55,80.7,5.06-12.55,12.73-24.15,21.2-35.03.3-.38.68-.54,1.05-.58,1.76,1.03,3.8,1.61,5.97,1.61,6.58,0,11.93-5.35,11.93-11.93,0-2.57-.81-4.95-2.2-6.9h0c.21-.53.72-.89,1.32-1.42,13.41-11.58,28.46-20.67,44.72-27.61l5.7-2.47Z"/>
    <path class="st5" d="M126.09,202.98l-.22,78.97-.72-1.98c-5.82-19.91-16.33-38.95-28.18-56.01,2.03-2.06,2.53-7.9.45-9.78,7.98-4.84,16.2-9.3,24.65-13.41,1.17.99,2.53,1.74,4.02,2.22Z"/>
    <path class="st4" d="M248.69,201.12v.03s-.71,1.74-.71,1.74c0-.03,0-.05.01-.07.06-.36.19-.78-.44-1.1-1.68.66-3.33,1.34-4.98,2.05l5.7-2.47.42-.18Z"/>
    <path class="st4" d="M190.8,228.68l-.06.03-.32.19c0-.09.01-.19.03-.28.12.03.24.05.35.05Z"/>
    <path class="st4" d="M176.5,245.31l-.09.23s-.03-.05-.05-.07c.05-.05.09-.1.13-.15Z"/>
    <path class="st4" d="M181.83,250.04c-.27-.03-.63-.08-.99-.03-.42-.24-.83-.51-1.21-.79l2.21.83Z"/>
    <path class="st7" d="M258.43,41.85l-1.73,5.32c.11,1.45.88,2.83,1.73,4.14v-9.46Z"/>
    <path class="st4" d="M176.43,234.66c.03-.17.05-.32.03-.47,0-.11-.02-.23-.05-.33.17-.3.34-.59.54-.87l-.32,1.03.38-.39c-.18.36-.39.68-.58,1.03Z"/>
    <path class="st4" d="M181.21,229.36l-.7.21c.09-.06.17-.11.26-.17h0c.13,0,.27,0,.42-.04Z"/>
    <path class="st1" d="M250.08,197.65"/>
    <path class="st1" d="M155.17,287.24"/>
    <path class="st11" d="M136.79,200.27c-.13.09-.29.17-.46.23v-.67c.17.11.32.25.46.44Z"/>
    <path class="st11" d="M138.46,199.59c-.22.25-.46.49-.7.72-.07.07-.13.13-.2.19-.12-.05-.24-.09-.36-.13,0,0,0,0-.01,0-.13-.05-.26-.07-.39-.1l1.29-.97c.13.1.25.19.38.29Z"/>
    <path class="st11" d="M140.69,195.92h0c-.02.06-.04.12-.07.17,0,.03-.02.05-.03.08-.03-.1-.06-.19-.11-.27l-.21-.27c.14.1.28.19.42.29Z"/>
    <path class="st11" d="M82.74,208.84c-.28.14-.56.29-.83.46-1.17.7-2.19,1.62-2.99,2.7l-18.58-19.61c-1.41.89-3.08,1.42-4.88,1.42-5.03,0-9.09-4.07-9.09-9.09s4.07-9.09,9.09-9.09,9.09,4.07,9.09,9.09c0,1.45-.34,2.83-.95,4.04l19.13,20.1Z"/>
    <path class="st4" d="M251.43,194.27l-2.74,6.86-.42.18-5.7,2.47c-16.25,6.94-31.3,16.02-44.72,27.61-.6.52-1.11.89-1.32,1.41h0c1.38,1.95,2.2,4.33,2.2,6.9,0,6.58-5.35,11.93-11.93,11.93-2.17,0-4.22-.58-5.97-1.61.36-.05.72,0,.99.03l-2.21-.83c.38.28.79.56,1.21.79-.37.05-.75.2-1.05.58-8.46,10.88-16.14,22.48-21.2,35.03l-8.48,3.97c6.28-15.89,15.04-31.24,26.26-44.14.02.03.03.05.05.07l.09-.23c-.05.05-.09.1-.13.15-.94-1.71-1.48-3.68-1.48-5.77,0-1.79.4-3.5,1.11-5.03h0s.46-.47.46-.47c.01.15,0,.3-.03.47.19-.36.4-.68.58-1.03l-.38.39.32-1.03c-.2.28-.38.57-.54.87-.22-.76-1.01-1.27-1.78-1.95-.13-.11-.26-.23-.38-.34-11.21-9.9-22.1-19.72-33.82-28.99-1.03-.81-1.88-1.64-2.87-2.07-.12-.05-.24-.09-.36-.13,0,0,0,0-.01,0-.13-.05-.26-.07-.39-.1l1.29-.97c.13.1.25.19.38.29.89-1,1.62-2.15,2.13-3.41h0c-.03-.11-.06-.19-.11-.28l-.21-.27c.14.1.28.19.42.29h0c13.19,9.15,25.07,20.19,37.17,31.12h.02c.39.37.79.73,1.19,1.09.67.6,1.04,1.23,1.72,1.27-.09.05-.18.11-.26.17l.7-.21-.17-.11c1.71-.95,3.68-1.48,5.77-1.48,1.48,0,2.91.27,4.22.77l-.24.15c-.11,0-.23-.03-.35-.05-.01.09-.02.19-.03.28l.32-.19.06-.03c.19.01.37,0,.56-.02-.11-.05-.21-.09-.32-.13l2.48-1.49c15.97-13.86,34.21-24.47,54.06-31.85,1.48-.55,2.66-.8,3.86-.92Z"/>
    <path class="st4" d="M176.5,245.31l-.09.23s-.03-.05-.05-.07c.05-.05.09-.1.13-.15Z"/>
    <path class="st4" d="M176.43,234.66c.03-.17.05-.32.03-.47l-.46.46c.12-.27.26-.54.4-.79.17-.3.34-.59.54-.87l-.32,1.03.38-.39c-.18.36-.39.68-.58,1.03Z"/>
    <path class="st4" d="M181.21,229.36l-.7.21c.09-.06.17-.11.26-.17h0c.09-.05.17-.11.26-.15l.17.11Z"/>
    <path class="st4" d="M190.8,228.68l-.06.03-.32.19c0-.09.01-.19.03-.28.12.03.24.05.35.05Z"/>
    <path class="st4" d="M191.35,228.66c-.19.03-.36.03-.56.02l.24-.15c.11.04.21.09.32.13Z"/>
    <path class="st4" d="M181.83,250.04c-.27-.03-.63-.08-.99-.03-.42-.24-.83-.51-1.21-.79l2.21.83Z"/>
    <path class="st5" d="M125.88,283.98c0-.14,0-.28,0-.42v-.6,1.01Z"/>
    <line class="st0" x1="51.77" y1="252.26" x2="51.79" y2="252.23"/>
    <polygon class="st11" points="55.88 255.6 55.88 255.63 55.88 255.6 55.88 255.6"/>
    <path class="st4" d="M191.35,228.66c-.19.03-.36.03-.56.02l.24-.15c.11.04.21.09.32.13Z"/>
    <path class="st4" d="M176.95,232.99l-.32,1.03h0s-.17.17-.17.17l-.46.46h0s-1.76-3.09-1.76-3.09c.13.11.26.23.38.34.77.68,1.56,1.2,1.78,1.95.17-.3.34-.59.54-.87Z"/>
    <path class="st4" d="M180.52,229.56c.09-.06.17-.11.26-.17-.68-.05-1.05-.67-1.72-1.27-.4-.36-.79-.72-1.19-1.07l3.17,2.19.17.11-.7.21Z"/>
    <polygon class="st9" points="248.69 201.12 248.68 201.16 248.03 202.74 248 202.82 247.15 204.88 247.14 204.92 243.65 205.45 242.58 203.77 248.28 201.3 248.69 201.12"/>
    <path class="st11" d="M125.88,283.98c0-.14,0-.28,0-.42v-.6,1.01Z"/>
    <path class="st11" d="M141.46,191.73c0,1.25-.19,2.44-.56,3.57,0,0,0,.01,0,.03-.05.3-.52,2.74-3.36,5.17-.31.27-.66.54-1.03.81-.09.07-.18.13-.27.19-.03.03-.07.05-.11.08-.2.14-.4.27-.62.4-.44.25-.9.48-1.38.67-1.38.56-2.89.87-4.46.87-1.25,0-2.45-.19-3.58-.55-1.49-.48-2.85-1.23-4.02-2.22-8.45,4.11-16.67,8.58-24.65,13.41,2.08,1.89,1.58,7.72-.45,9.78,11.86,17.06,22.36,36.1,28.18,56.01l.72,1.98v1.62c0,.14,0,.28,0,.42v.15c.05,4.14.31,8.41-.02,12.67-.05.66-.74,1.09-1.36.85-.11-.04-.24-.09-.38-.15h-.01c-.12-.52-.25-1.04-.37-1.55-.12-.47-.24-.93-.36-1.4-.15-.58-.29-1.15-.45-1.73-.2-.77-.41-1.54-.63-2.31t0-.01c-.21-.76-.43-1.52-.66-2.29-.25-.86-.52-1.72-.78-2.58-.16-.5-.32-1.01-.48-1.52-.14-.42-.28-.85-.42-1.28-.17-.52-.34-1.03-.52-1.55-.26-.76-.52-1.52-.79-2.29-.53-1.5-1.08-3-1.65-4.49-.29-.77-.59-1.54-.89-2.3-.58-1.48-1.19-2.96-1.81-4.42,0-.02-.01-.03-.03-.05-.31-.74-.63-1.49-.96-2.23-.38-.88-.77-1.76-1.17-2.62-.27-.6-.55-1.21-.83-1.8-.34-.74-.68-1.46-1.03-2.19-.35-.73-.7-1.46-1.06-2.19-.36-.73-.72-1.45-1.09-2.17s-.74-1.44-1.11-2.16c-.37-.71-.74-1.41-1.11-2.11-.37-.7-.76-1.4-1.13-2.1-.39-.71-.78-1.42-1.18-2.12-.79-1.41-1.59-2.82-2.42-4.21-.43-.73-.87-1.46-1.3-2.19-.82-1.36-1.65-2.7-2.49-4.04-.45-.72-.91-1.44-1.36-2.15-.95-1.47-1.92-2.94-2.89-4.4l-2.55-.92c-1.04.35-2.16.54-3.32.54-2.04,0-3.95-.58-5.55-1.61,0,0-.02,0-.03-.01,0,0-.01,0-.02-.01-1.66-1.05-3-2.57-3.84-4.36-.64-1.34-.99-2.85-.99-4.43,0-2.34.77-4.51,2.08-6.25.81-1.08,1.82-2,2.99-2.7.26-.17.54-.32.83-.46h0c1.36-.66,2.89-1.03,4.52-1.03,2.31,0,4.46.76,6.19,2.03,8.09-5.35,16.03-10.21,24.96-14.53-.36-1.13-.56-2.33-.56-3.58,0-5.29,3.48-9.76,8.27-11.26,1.12-.35,2.31-.54,3.54-.54,1.58,0,3.09.31,4.46.87,4.3,1.76,7.33,5.99,7.33,10.92Z"/>
    <path class="st11" d="M137.55,200.51c-.32.29-.68.56-1.04.81.37-.27.72-.54,1.03-.81,0,0,0,0,.01,0Z"/>
  </g>
  <path class="st8" d="M135.49,297.54c5.55-2.24,26.38-11.18,52.81-29.03l-54.16,27.7-.02.34c-.04.73.69,1.26,1.37.98Z"/>
  <polygon class="st4" points="151 287.47 149.75 291.05 159.15 286.19 159.93 282.47 151 287.47"/>
</svg>